<svg xmlns="http://www.w3.org/2000/svg" viewBox="0 0 500 500">
  <path d="M265.79,250.72c-.4-.39-.4-1.04,0-1.43l48.54-47.26c4.15-4.05,4.24-10.69.2-14.85-4.05-4.15-10.69-4.24-14.85-.2l-48.98,47.69c-.39.38-1.01.38-1.4,0l-48.98-47.69c-4.16-4.04-10.8-3.96-14.85.2-4.04,4.16-3.96,10.8.2,14.85l48.54,47.26c.4.39.4,1.04,0,1.43l-48.54,47.26c-4.15,4.05-4.24,10.69-.2,14.85,2.06,2.11,4.79,3.17,7.52,3.17s5.28-.99,7.32-2.98l48.98-47.69c.39-.38,1.01-.38,1.4,0l48.98,47.69c2.04,1.99,4.68,2.98,7.32,2.98s5.47-1.06,7.52-3.17c4.04-4.16,3.96-10.8-.2-14.85l-48.54-47.26Z"/>
</svg>