<svg xmlns="http://www.w3.org/2000/svg" viewBox="0 0 800 800">
    <path d="m749.35 763.23-60-538C687.94 212.57 677.24 203 664.5 203H556.73c-5.23-35.7-12.17-65.73-22.09-91.87-12.54-33.03-29.21-57.35-50.96-74.33C460.06 18.36 430.39 9 395.51 9s-64.6 9.5-88.09 28.24c-21.56 17.2-37.94 41.78-50.07 75.13-9.49 26.08-15.95 57.07-20.55 90.62H134.02c-12.73 0-23.43 9.57-24.85 22.23l-60 538a24.998 24.998 0 0 0 6.21 19.44 25 25 0 0 0 18.63 8.33h650.5a25 25 0 0 0 18.63-8.33c4.74-5.3 7-12.37 6.21-19.44ZM304.32 129.47C322.29 80.08 349.55 59 395.5 59s73.8 20.9 92.39 69.87c7.94 20.92 13.76 46.25 18.18 74.13H287.24c4.06-27.59 9.51-52.7 17.08-73.53ZM101.94 741l54.42-488h74.93c-2.66 30.7-4.34 62.49-5.77 93.86-.63 13.79 10.04 25.49 23.83 26.12.39.02.78.03 1.16.03 13.28 0 24.34-10.45 24.95-23.86 1.48-32.3 3.21-65.01 6-96.14h230.98c3.12 30.6 5.23 62.73 7.1 94.47.81 13.78 12.63 24.31 26.42 23.49 13.78-.81 24.3-12.64 23.49-26.42-1.98-33.77-4.12-64.09-6.78-91.53h79.45l54.42 488h-594.6Z" style="fill:#567c50"/>
</svg>
