<svg xmlns="http://www.w3.org/2000/svg" viewBox="0 0 800 800">
    <path d="M669.6 119h-61.8V86.1c0-10.5-8.5-19-19-19h-97.1C481.1 25.7 443.2-4 400-4s-81.1 29.7-91.8 71.2h-97.1c-10.5 0-19 8.5-19 19v32.9h-61.8c-10.5 0-19 8.5-19 19v647c0 10.5 8.5 19 19 19h539.3c10.5 0 19-8.5 19-19V138c0-10.5-8.5-19-19-19Zm-439.5 61.2v-75.1h94.2c10 0 18.3-7.8 18.9-17.8C345 57.4 369.9 34 399.9 34s54.9 23.4 56.7 53.3c.6 10 8.9 17.8 18.9 17.8h94.2v75.1H230.1Zm-18.9 37.9h377.7c10.5 0 19-8.5 19-19v-42.2h42.9V766H149.3V157h42.9v42.2c0 10.5 8.5 19 19 19Z"/>
    <path d="m188.5 359.1 35.6 35.6c3.6 3.6 8.3 5.6 13.4 5.6s9.8-2 13.4-5.6l67.3-67.3c7.4-7.4 7.4-19.4 0-26.8-7.4-7.4-19.4-7.4-26.8 0l-53.9 53.9-22.2-22.2c-7.4-7.4-19.4-7.4-26.8 0-7.4 7.4-7.4 19.4 0 26.8ZM366.7 366.5h231.4c10.5 0 19-8.5 19-19s-8.5-19-19-19H366.7c-10.5 0-19 8.5-19 19s8.5 19 19 19ZM224.1 552.8c3.6 3.6 8.3 5.6 13.4 5.6s9.8-2 13.4-5.6l67.3-67.3c7.4-7.4 7.4-19.4 0-26.8-7.4-7.4-19.4-7.4-26.8 0l-53.9 53.9-22.2-22.2c-7.4-7.4-19.4-7.4-26.8 0-7.4 7.4-7.4 19.4 0 26.8l35.6 35.6ZM366.7 524.7h231.4c10.5 0 19-8.5 19-19s-8.5-19-19-19H366.7c-10.5 0-19 8.5-19 19s8.5 19 19 19ZM291.4 616.8l-53.9 53.9-22.2-22.2c-7.4-7.4-19.4-7.4-26.8 0-7.4 7.4-7.4 19.4 0 26.8l35.6 35.6c3.6 3.6 8.3 5.6 13.4 5.6s9.8-2 13.4-5.6l67.3-67.3c7.4-7.4 7.4-19.4 0-26.8-7.4-7.4-19.4-7.4-26.8 0ZM366.7 682.9h231.4c10.5 0 19-8.5 19-19s-8.5-19-19-19H366.7c-10.5 0-19 8.5-19 19s8.5 19 19 19Z"/>
</svg>
