<svg xmlns="http://www.w3.org/2000/svg" viewBox="0 0 800 800">


    <path fill-rule="evenodd" d="M240 26.7h53.3c0-14.8 12-26.7 26.7-26.7h160c14.7 0 26.7 11.9 26.7 26.7H560V80H240V26.7Z"/>
    <path fill-rule="evenodd" d="M549 655.6c-10 10-15.7 23.6-15.6 37.7V800H160c-29.5 0-53.3-23.9-53.3-53.3V80c0-29.5 23.9-53.3 53.3-53.3h26.7v80c0 14.7 11.9 26.7 26.7 26.7h373.3c14.7 0 26.7-11.9 26.7-26.7v-80h26.7c29.5 0 53.3 23.9 53.3 53.3v560M586.7 800V693.3h106.7L586.7 800Zm-320-560h266.7c14.7 0 26.7 11.9 26.7 26.7s-11.9 26.7-26.7 26.7H266.7c-14.7 0-26.7-11.9-26.7-26.7s11.9-26.7 26.7-26.7Zm0 133.3h266.7c14.7 0 26.7 11.9 26.7 26.7s-11.9 26.7-26.7 26.7H266.7c-14.7 0-26.7-11.9-26.7-26.7s11.9-26.7 26.7-26.7Zm0 133.4h266.7c14.7 0 26.7 11.9 26.7 26.7s-11.9 26.7-26.7 26.7H266.7c-14.7 0-26.7-11.9-26.7-26.7s11.9-26.7 26.7-26.7Z"/>

</svg>
