<?xml version="1.0" encoding="UTF-8"?>
<svg id="Lager_1" xmlns="http://www.w3.org/2000/svg" viewBox="0 0 1080 1080">
  <path d="M540,60c64.83,0,127.68,12.68,186.82,37.7,57.15,24.17,108.49,58.79,152.59,102.89,44.1,44.1,78.72,95.44,102.89,152.59,25.01,59.14,37.7,121.99,37.7,186.82s-12.68,127.68-37.7,186.82c-24.17,57.15-58.79,108.49-102.89,152.59-44.1,44.1-95.44,78.72-152.59,102.89-59.14,25.01-121.99,37.7-186.82,37.7s-127.68-12.68-186.82-37.7c-57.15-24.17-108.49-58.79-152.59-102.89-44.1-44.1-78.72-95.44-102.89-152.59-25.01-59.14-37.7-121.99-37.7-186.82s12.68-127.68,37.7-186.82c24.17-57.15,58.79-108.49,102.89-152.59,44.1-44.1,95.44-78.72,152.59-102.89,59.14-25.01,121.99-37.7,186.82-37.7M540,0C241.77,0,0,241.77,0,540s241.77,540,540,540,540-241.77,540-540S838.23,0,540,0h0Z"/>
  <path d="M539.94,527.65c69.61,0,126.04-56.43,126.04-126.04s-56.43-126.04-126.04-126.04-126.04,56.43-126.04,126.04,56.43,126.04,126.04,126.04ZM540,582.85c-167.58,0-275,92.47-275,137.5v79.08c0,2.76,2.24,5,5,5h540c2.76,0,5-2.24,5-5v-79.07c0-54.45-101.7-137.5-275-137.5h0Z"/>
</svg>