<?xml version="1.0" encoding="utf-8"?>
<!-- Generator: Adobe Illustrator 28.1.0, SVG Export Plug-In . SVG Version: 6.00 Build 0)  -->
<svg version="1.1" id="Lager_1" xmlns:sketch="http://www.bohemiancoding.com/sketch/ns"
	 xmlns="http://www.w3.org/2000/svg" xmlns:xlink="http://www.w3.org/1999/xlink" x="0px" y="0px" viewBox="0 0 800 800"
	 style="enable-background:new 0 0 800 800;" xml:space="preserve">
<style type="text/css">
	.st0{fill-rule:evenodd;clip-rule:evenodd;}
</style>
<g id="Page-1" sketch:type="MSPage">
	<g id="Icon-Set" transform="translate(-412.000000, -259.000000)" sketch:type="MSLayerGroup">
		<path id="mail" sketch:type="MSShapeGroup" class="st0" d="M1162,859c0,5.1-1,9.9-2.4,14.5L937,634l225-175V859L1162,859z
			 M500.9,907.7l225.6-240.4l61,46.1c14.4,10.9,34.3,10.6,48.5-0.6l57.8-45.9l229.3,240.8C1119.5,908.5,504.5,908.5,500.9,907.7
			L500.9,907.7z M462,859V459l225,175L464.4,873.5C463,868.9,462,864.1,462,859L462,859z M1137,409L812,659L487,409H1137L1137,409z
			 M1112,359H512c-55.2,0-100,44.8-100,100v400c0,55.2,44.8,100,100,100h600c55.2,0,100-44.8,100-100V459
			C1212,403.8,1167.2,359,1112,359L1112,359z"/>
	</g>
</g>
</svg>
