<?xml version="1.0" encoding="UTF-8"?>
<svg xmlns="http://www.w3.org/2000/svg" version="1.1" viewBox="0 0 800 800">
  <!-- Generator: Adobe Illustrator 28.7.1, SVG Export Plug-In . SVG Version: 1.2.0 Build 142)  -->
  <g>
    <g id="Lager_1">
      <path d="M700,733.3c-8.5,0-17.1-3.3-23.6-9.8l-179.4-179.6c-46.6,36.4-103.6,56.1-163.7,56.1s-138.2-27.7-188.6-78.1c-50.4-50.4-78.1-117.3-78.1-188.6s27.7-138.2,78.1-188.6c50.4-50.4,117.3-78.1,188.6-78.1s138.2,27.7,188.6,78.1c50.4,50.4,78.1,117.3,78.1,188.6s-19.6,116.9-55.9,163.4l179.5,179.7c13,13,13,34.1,0,47.1-6.5,6.5-15,9.7-23.6,9.7ZM333.3,133.3c-110.3,0-200,89.7-200,200s89.7,200,200,200,200-89.7,200-200-89.7-200-200-200Z"/>
    </g>
  </g>
</svg>